<svg id="Layer_5" enable-background="new 0 0 64 64" height="512" viewBox="0 0 64 64" width="512" xmlns="http://www.w3.org/2000/svg"><g><g><g><path d="m18 63c-9.374 0-17-7.626-17-17s7.626-17 17-17 17 7.626 17 17-7.626 17-17 17zm0-29c-6.617 0-12 5.383-12 12s5.383 12 12 12 12-5.383 12-12-5.383-12-12-12z" fill="#f0bc5e"/></g></g><g><path d="m5 10h14v9h-14z" fill="#f0bc5e"/></g><g><path d="m58 41h-19.184c-.414-1.161-1.514-2-2.816-2h-2.526c.294.648.561 1.312.773 2h1.753c.551 0 1 .449 1 1v8c0 .551-.449 1-1 1h-1.753c-.212.688-.479 1.352-.773 2h2.526c1.302 0 2.402-.839 2.816-2h19.184c2.757 0 5-2.243 5-5s-2.243-5-5-5zm0 8h-19v-6h19c1.654 0 3 1.346 3 3s-1.346 3-3 3z"/><path d="m32 24c1.484 0 2.859-.467 3.992-1.258l5.943 6.367c-.583.819-.935 1.812-.935 2.891 0 2.757 2.243 5 5 5s5-2.243 5-5c0-1.798-.963-3.364-2.392-4.246l3.278-9.016c.68.165 1.385.262 2.114.262 4.962 0 9-4.038 9-9s-4.038-9-9-9-9 4.038-9 9c0 3.527 2.045 6.579 5.007 8.054l-3.28 9.02c-.239-.036-.478-.074-.727-.074-.955 0-1.84.283-2.599.75l-5.947-6.372c.965-1.2 1.546-2.722 1.546-4.378 0-3.86-3.14-7-7-7s-7 3.14-7 7c0 2.412 1.227 4.544 3.089 5.803l-5.359 11.101c-1.468-.576-3.06-.904-4.73-.904-7.168 0-13 5.832-13 13s5.832 13 13 13 13-5.832 13-13c0-4.787-2.608-8.968-6.471-11.224l5.36-11.103c.666.211 1.375.327 2.111.327zm15-14c0-3.86 3.14-7 7-7s7 3.14 7 7-3.14 7-7 7-7-3.14-7-7zm-18 36c0 6.065-4.935 11-11 11s-11-4.935-11-11 4.935-11 11-11c1.358 0 2.654.259 3.857.711l-2.635 5.457c-.393-.099-.798-.168-1.222-.168-2.757 0-5 2.243-5 5s2.243 5 5 5 5-2.243 5-5c0-1.617-.785-3.043-1.979-3.957l2.636-5.459c3.195 1.926 5.343 5.42 5.343 9.416zm-8 0c0 1.654-1.346 3-3 3s-3-1.346-3-3 1.346-3 3-3 3 1.346 3 3zm28-14c0 1.654-1.346 3-3 3s-3-1.346-3-3 1.346-3 3-3 3 1.346 3 3zm-22-15c0-2.757 2.243-5 5-5s5 2.243 5 5-2.243 5-5 5-5-2.243-5-5z"/><path d="m5 9h14v2h-14z"/><path d="m5 13h14v2h-14z"/><path d="m5 17h2v2h-2z"/><path d="m9 17h2v2h-2z"/><path d="m13 17h2v2h-2z"/><path d="m17 17h2v2h-2z"/><path d="m23 20v-12c0-1.654-1.346-3-3-3h-16c-1.654 0-3 1.346-3 3v12c0 1.654 1.346 3 3 3h16c1.654 0 3-1.346 3-3zm-20 0v-12c0-.551.449-1 1-1h16c.551 0 1 .449 1 1v12c0 .551-.449 1-1 1h-16c-.551 0-1-.449-1-1z"/></g></g></svg>