<svg id="Capa_1" enable-background="new 0 0 512 512" height="512" viewBox="0 0 512 512" width="512" xmlns="http://www.w3.org/2000/svg"><g id="XMLID_851_"><g fill="#79b2ff"><path id="XMLID_1705_" d="m282.03 454h-248c-13.255 0-24 10.745-24 24 0 13.255 10.745 24 24 24h248c13.255 0 24-10.745 24-24 0-13.255-10.745-24-24-24z"/><path id="XMLID_1671_" d="m282.03 142h-248c-13.255 0-24-10.745-24-24 0-13.255 10.745-24 24-24h248c13.255 0 24 10.745 24 24 0 13.255-10.745 24-24 24z"/><path id="XMLID_1670_" d="m34.03 142h248v312h-248z"/></g><path id="XMLID_1788_" d="m34.03 203h248v184h-248z" fill="#cee3ff"/><path id="XMLID_2734_" d="m430.03 10 37.399 37.399c46.135 46.135 46.135 120.934 0 167.068l-37.399 37.399-37.399-37.399c-46.135-46.135-46.135-120.934 0-167.068z" fill="#d8ec84"/><g id="XMLID_1435_"><path id="XMLID_1490_" d="m474.501 40.328-37.4-37.399c-3.906-3.905-10.236-3.905-14.143 0l-37.399 37.399c-49.959 49.959-49.959 131.25 0 181.21l34.471 34.47v127.492c0 14.061-11.439 25.5-25.5 25.5h-102.5v-258.503c13.883-4.281 24-17.229 24-32.497 0-18.748-15.252-34-34-34h-78.873c-5.522 0-10 4.477-10 10s4.478 10 10 10h78.873c7.72 0 14 6.28 14 14s-6.28 14-14 14h-248c-7.72 0-14-6.28-14-14s6.28-14 14-14h79.127c5.522 0 10-4.477 10-10s-4.478-10-10-10h-79.127c-18.748 0-34 15.252-34 34 0 15.269 10.117 28.217 24 32.497v295.006c-13.883 4.281-24 17.229-24 32.497 0 18.748 15.252 34 34 34h248c18.748 0 34-15.252 34-34 0-15.269-10.117-28.217-24-32.497v-16.503h102.5c25.089 0 45.5-20.411 45.5-45.5v-127.491l34.471-34.471c49.959-49.959 49.959-131.25 0-181.21zm-202.471 336.672h-228v-164h228zm-228 20h228v47h-228zm228-245v41h-228v-41zm10 340h-248c-7.72 0-14-6.28-14-14s6.28-14 14-14h248c7.72 0 14 6.28 14 14s-6.28 14-14 14zm158-264.276v-96.791c0-5.523-4.478-10-10-10s-10 4.477-10 10v96.791l-20.328-20.328c-42.161-42.162-42.161-110.765 0-152.926l30.328-30.328 30.328 30.328c42.161 42.162 42.161 110.765 0 152.926z"/><path id="XMLID_1580_" d="m129.344 300.801c1.876 2.635 4.911 4.2 8.146 4.2h27.292l-10.339 29.862c-1.807 5.219.96 10.915 6.179 12.721 1.083.375 2.187.553 3.271.553 4.144 0 8.018-2.596 9.45-6.731l14.933-43.134c1.058-3.057.572-6.437-1.305-9.072-1.876-2.635-4.911-4.2-8.146-4.2h-27.292l10.339-29.862c1.807-5.219-.96-10.915-6.179-12.721-5.219-1.808-10.914.959-12.722 6.178l-14.933 43.134c-1.057 3.056-.571 6.436 1.306 9.072z"/><path id="XMLID_1602_" d="m158.16 104c2.63 0 5.21-1.07 7.07-2.93 1.859-1.86 2.93-4.44 2.93-7.07s-1.07-5.21-2.93-7.07c-1.87-1.86-4.44-2.93-7.07-2.93s-5.21 1.07-7.07 2.93c-1.87 1.86-2.93 4.44-2.93 7.07s1.06 5.21 2.93 7.07c1.86 1.86 4.43 2.93 7.07 2.93z"/></g></g></svg>