<svg height="464pt" viewBox="0 0 464 464" width="464pt" xmlns="http://www.w3.org/2000/svg"><path d="m296 296v-128h104v128zm0 0" fill="#348fd9"/><path d="m422.457031 256h41.542969v-48h-41.542969c-1.707031-13.632812-4.875-27.042969-9.449219-40-1.246093-3.535156-2.550781-7.046875-4-10.488281l35.914063-20.710938-24-41.601562-36 20.800781c-10.582031-13.929688-23.003906-26.363281-36.921875-36.960938l20.761719-36-41.601563-24-20.671875 35.953126c-16.132812-6.777344-33.121093-11.300782-50.488281-13.449219v-41.542969h-48v41.542969c-17.367188 2.148437-34.355469 6.671875-50.488281 13.449219l-20.710938-35.914063-41.601562 24 20.800781 36c-13.929688 10.582031-26.363281 23.003906-36.960938 36.921875l-36-20.800781-24 41.601562 35.914063 20.726563c-6.761719 16.128906-11.273437 33.113281-13.410156 50.472656h-41.542969v48h41.542969c2.148437 17.367188 6.671875 34.355469 13.449219 50.488281l-35.914063 20.710938 24 41.601562 36-20.761719c10.585937 13.917969 23.003906 26.335938 36.921875 36.921876l-20.800781 36 41.601562 24 20.726563-35.914063c16.128906 6.761719 33.113281 11.273437 50.472656 13.410156v41.542969h48v-41.542969c17.367188-2.148437 34.355469-6.671875 50.488281-13.449219l20.710938 35.914063 41.601562-24-20.800781-35.960937c13.933594-10.59375 26.367188-23.027344 36.960938-36.960938l36 20.761719 24-41.601563-35.914063-20.726562c1.449219-3.441406 2.753906-6.953125 4-10.488282 4.558594-12.941406 7.710937-26.332031 9.410156-39.945312zm-190.457031 104c-58.097656.125-109.023438-38.816406-124.128906-94.914062-15.109375-56.097657 9.371094-115.34375 59.671875-144.414063 50.296875-29.074219 113.855469-20.707031 154.921875 20.390625 41.0625 41.09375 49.382812 104.660156 20.269531 154.9375-22.84375 39.566406-65.046875 63.957031-110.734375 64zm0 0" fill="#ffb531"/><path d="m189.40625 5.0625 47.585938 47.59375-33.9375 33.945312-47.589844-47.59375c-12.929688 30.402344-.558594 65.648438 28.535156 81.304688v229.0625c-24.847656 20.007812-31.167969 55.257812-14.820312 82.652344 16.351562 27.390625 50.375 38.5625 79.78125 26.1875l-47.59375-47.589844 33.945312-33.9375 47.589844 47.585938c6.6875-15.792969 6.757812-33.605469.195312-49.445313-6.5625-15.84375-19.203125-28.390625-35.097656-34.828125v-221.601562c28.164062-17.710938 38.058594-54.042969 22.769531-83.589844-15.292969-29.546875-50.671875-42.453125-81.394531-29.6875zm0 0" fill="#e0e0de"/><path d="m296 168v128h-136c-8.835938 0-16-7.164062-16-16s7.164062-16 16-16c-8.835938 0-16-7.164062-16-16s7.164062-16 16-16c-8.835938 0-16-7.164062-16-16s7.164062-16 16-16c-8.835938 0-16-7.164062-16-16s7.164062-16 16-16zm0 0" fill="#fec9a3"/><g fill="#feb784"><path d="m152 192h24c4.417969 0 8 3.582031 8 8s-3.582031 8-8 8h-24c-4.417969 0-8-3.582031-8-8s3.582031-8 8-8zm0 0"/><path d="m152 224h24c4.417969 0 8 3.582031 8 8s-3.582031 8-8 8h-24c-4.417969 0-8-3.582031-8-8s3.582031-8 8-8zm0 0"/><path d="m152 256h24c4.417969 0 8 3.582031 8 8s-3.582031 8-8 8h-24c-4.417969 0-8-3.582031-8-8s3.582031-8 8-8zm0 0"/><path d="m288 168-40-32v32zm0 0"/></g><path d="m125.601562 117.710938-11.203124-11.421876c4.121093-4.035156 8.441406-7.859374 12.945312-11.457031l9.984375 12.503907c-4.082031 3.257812-7.996094 6.71875-11.726563 10.375zm0 0" fill="#ffcb73"/><path d="m80.183594 224.390625-16-.796875c1.730468-37.144531 15.859375-72.632812 40.128906-100.800781l12.160156 10.398437c-21.957031 25.488282-34.730468 57.597656-36.289062 91.199219zm0 0" fill="#ffcb73"/><path d="m184 296h64v16h-64zm0 0" fill="#ccccca"/></svg>